<svg xmlns="http://www.w3.org/2000/svg" width="520" height="230" viewBox="0 0 520 230" font-family="Helvetica,Arial,sans-serif">
<rect width="520" height="230" fill="#e9eef3"/>
<rect x="40" y="30" width="150" height="150" rx="6" fill="#fbfbfb" stroke="#d4d4d4"/>
<rect x="40" y="30" width="150" height="26" rx="6" fill="#eeeeee" stroke="#d4d4d4"/>
<rect x="40" y="43" width="150" height="13" fill="#eeeeee"/>
<text x="115" y="48" font-size="13" font-weight="bold" fill="#404040" text-anchor="middle">lan2</text>
<rect x="98" y="66" width="34" height="28" rx="3" fill="#f4f4f4" stroke="#5a8f4f" stroke-width="2"/>
<rect x="108" y="61" width="12" height="7" fill="#5a8f4f"/>
<text x="115" y="118" font-size="14" fill="#2e7d32" text-anchor="middle">1 GbE</text>
<rect x="52" y="128" width="88" height="22" rx="4" fill="#1a3a6a" stroke="#f1c40f" stroke-width="2"/>
<text x="96" y="143" font-size="13" fill="#8abcff" text-anchor="middle">Camera Pool</text>
<rect x="150" y="70" width="330" height="120" rx="6" fill="#ffffff" stroke="#b0b0b0" stroke-width="1.5"/>
<rect x="150" y="70" width="330" height="30" rx="6" fill="#f5f5f5"/>
<rect x="150" y="86" width="330" height="14" fill="#f5f5f5"/>
<text x="164" y="90" font-size="13" fill="#333333">10.140.1.155 says</text>
<text x="164" y="122" font-size="13" fill="#333333">Label for lan2:</text>
<rect x="164" y="130" width="300" height="24" rx="3" fill="#ffffff" stroke="#8ab4f8" stroke-width="2"/>
<text x="172" y="147" font-size="13" fill="#111111">Camera Pool</text>
<rect x="322" y="162" width="66" height="22" rx="3" fill="#f2f2f2" stroke="#c0c0c0"/>
<text x="355" y="177" font-size="12" fill="#333" text-anchor="middle">Cancel</text>
<rect x="396" y="162" width="66" height="22" rx="3" fill="#1a73e8"/>
<text x="429" y="177" font-size="12" fill="#ffffff" text-anchor="middle">OK</text>
</svg>