<svg xmlns="http://www.w3.org/2000/svg" width="1272" height="196" viewBox="0 0 1272 196" font-family="Helvetica,Arial,sans-serif">
<rect width="1272" height="196" fill="#ffffff"/>
<text x="10" y="18" font-size="15" font-weight="bold" fill="#404040">Port status</text>
<rect x="10" y="36" width="118" height="150" rx="3" fill="#fbfbfb" stroke="#d4d4d4"/>
<rect x="10" y="36" width="118" height="24" rx="3" fill="#eeeeee" stroke="#d4d4d4"/>
<rect x="10" y="48" width="118" height="12" fill="#eeeeee"/>
<text x="69.0" y="52" font-size="12" font-weight="bold" fill="#404040" text-anchor="middle">lan1</text>
<rect x="58.0" y="70" width="22" height="18" rx="2" fill="#f4f4f4" stroke="#5a8f4f" stroke-width="1.5"/>
<rect x="65.0" y="67" width="8" height="5" fill="#5a8f4f"/>
<text x="69.0" y="108" font-size="11" fill="#2e7d32" text-anchor="middle">1 GbE</text>
<rect x="18" y="116" width="102" height="2" fill="#7cb342"/>
<rect x="44.0" y="126" width="50.0" height="16" rx="3" fill="#1a3a6a"/>
<text x="69.0" y="138" font-size="10" fill="#8abcff" text-anchor="middle">Router</text>
<text x="20" y="160" font-size="10" fill="#606060">&#9650; 0 B</text>
<text x="20" y="174" font-size="10" fill="#606060">&#9660; 0 B</text>
<rect x="136" y="36" width="118" height="150" rx="3" fill="#fbfbfb" stroke="#d4d4d4"/>
<rect x="136" y="36" width="118" height="24" rx="3" fill="#eeeeee" stroke="#d4d4d4"/>
<rect x="136" y="48" width="118" height="12" fill="#eeeeee"/>
<text x="195.0" y="52" font-size="12" font-weight="bold" fill="#404040" text-anchor="middle">lan2</text>
<rect x="184.0" y="70" width="22" height="18" rx="2" fill="#f4f4f4" stroke="#5a8f4f" stroke-width="1.5"/>
<rect x="191.0" y="67" width="8" height="5" fill="#5a8f4f"/>
<text x="195.0" y="108" font-size="11" fill="#2e7d32" text-anchor="middle">1 GbE</text>
<rect x="144" y="116" width="102" height="2" fill="#7cb342"/>
<rect x="155.0" y="126" width="80.0" height="16" rx="3" fill="#1a3a6a"/>
<text x="195.0" y="138" font-size="10" fill="#8abcff" text-anchor="middle">Camera Pool</text>
<text x="146" y="160" font-size="10" fill="#606060">&#9650; 0 B</text>
<text x="146" y="174" font-size="10" fill="#606060">&#9660; 0 B</text>
<rect x="262" y="36" width="118" height="150" rx="3" fill="#fbfbfb" stroke="#d4d4d4"/>
<rect x="262" y="36" width="118" height="24" rx="3" fill="#eeeeee" stroke="#d4d4d4"/>
<rect x="262" y="48" width="118" height="12" fill="#eeeeee"/>
<text x="321.0" y="52" font-size="12" font-weight="bold" fill="#404040" text-anchor="middle">lan3</text>
<rect x="310.0" y="70" width="22" height="18" rx="2" fill="#f4f4f4" stroke="#9a9a9a" stroke-width="1.5"/>
<rect x="317.0" y="67" width="8" height="5" fill="#9a9a9a"/>
<text x="321.0" y="108" font-size="11" fill="#909090" text-anchor="middle">no link</text>
<rect x="290.0" y="126" width="62.0" height="16" rx="3" fill="#1a3a6a"/>
<text x="321.0" y="138" font-size="10" fill="#8abcff" text-anchor="middle">Label...</text>
<text x="272" y="160" font-size="10" fill="#606060">&#9650; 0 B</text>
<text x="272" y="174" font-size="10" fill="#606060">&#9660; 0 B</text>
<rect x="388" y="36" width="118" height="150" rx="3" fill="#fbfbfb" stroke="#d4d4d4"/>
<rect x="388" y="36" width="118" height="24" rx="3" fill="#eeeeee" stroke="#d4d4d4"/>
<rect x="388" y="48" width="118" height="12" fill="#eeeeee"/>
<text x="447.0" y="52" font-size="12" font-weight="bold" fill="#404040" text-anchor="middle">lan4</text>
<rect x="436.0" y="70" width="22" height="18" rx="2" fill="#f4f4f4" stroke="#9a9a9a" stroke-width="1.5"/>
<rect x="443.0" y="67" width="8" height="5" fill="#9a9a9a"/>
<text x="447.0" y="108" font-size="11" fill="#909090" text-anchor="middle">no link</text>
<rect x="416.0" y="126" width="62.0" height="16" rx="3" fill="#1a3a6a"/>
<text x="447.0" y="138" font-size="10" fill="#8abcff" text-anchor="middle">Label...</text>
<text x="398" y="160" font-size="10" fill="#606060">&#9650; 0 B</text>
<text x="398" y="174" font-size="10" fill="#606060">&#9660; 0 B</text>
<rect x="514" y="36" width="118" height="150" rx="3" fill="#fbfbfb" stroke="#d4d4d4"/>
<rect x="514" y="36" width="118" height="24" rx="3" fill="#eeeeee" stroke="#d4d4d4"/>
<rect x="514" y="48" width="118" height="12" fill="#eeeeee"/>
<text x="573.0" y="52" font-size="12" font-weight="bold" fill="#404040" text-anchor="middle">lan5</text>
<rect x="562.0" y="70" width="22" height="18" rx="2" fill="#f4f4f4" stroke="#9a9a9a" stroke-width="1.5"/>
<rect x="569.0" y="67" width="8" height="5" fill="#9a9a9a"/>
<text x="573.0" y="108" font-size="11" fill="#909090" text-anchor="middle">no link</text>
<rect x="542.0" y="126" width="62.0" height="16" rx="3" fill="#1a3a6a"/>
<text x="573.0" y="138" font-size="10" fill="#8abcff" text-anchor="middle">Label...</text>
<text x="524" y="160" font-size="10" fill="#606060">&#9650; 0 B</text>
<text x="524" y="174" font-size="10" fill="#606060">&#9660; 0 B</text>
<rect x="640" y="36" width="118" height="150" rx="3" fill="#fbfbfb" stroke="#d4d4d4"/>
<rect x="640" y="36" width="118" height="24" rx="3" fill="#eeeeee" stroke="#d4d4d4"/>
<rect x="640" y="48" width="118" height="12" fill="#eeeeee"/>
<text x="699.0" y="52" font-size="12" font-weight="bold" fill="#404040" text-anchor="middle">lan6</text>
<rect x="688.0" y="70" width="22" height="18" rx="2" fill="#f4f4f4" stroke="#9a9a9a" stroke-width="1.5"/>
<rect x="695.0" y="67" width="8" height="5" fill="#9a9a9a"/>
<text x="699.0" y="108" font-size="11" fill="#909090" text-anchor="middle">no link</text>
<rect x="668.0" y="126" width="62.0" height="16" rx="3" fill="#1a3a6a"/>
<text x="699.0" y="138" font-size="10" fill="#8abcff" text-anchor="middle">Label...</text>
<text x="650" y="160" font-size="10" fill="#606060">&#9650; 0 B</text>
<text x="650" y="174" font-size="10" fill="#606060">&#9660; 0 B</text>
<rect x="766" y="36" width="118" height="150" rx="3" fill="#fbfbfb" stroke="#d4d4d4"/>
<rect x="766" y="36" width="118" height="24" rx="3" fill="#eeeeee" stroke="#d4d4d4"/>
<rect x="766" y="48" width="118" height="12" fill="#eeeeee"/>
<text x="825.0" y="52" font-size="12" font-weight="bold" fill="#404040" text-anchor="middle">lan7</text>
<rect x="814.0" y="70" width="22" height="18" rx="2" fill="#f4f4f4" stroke="#9a9a9a" stroke-width="1.5"/>
<rect x="821.0" y="67" width="8" height="5" fill="#9a9a9a"/>
<text x="825.0" y="108" font-size="11" fill="#909090" text-anchor="middle">no link</text>
<rect x="791.0" y="126" width="68.0" height="16" rx="3" fill="#1a3a6a"/>
<text x="825.0" y="138" font-size="10" fill="#8abcff" text-anchor="middle">AP Office</text>
<text x="776" y="160" font-size="10" fill="#606060">&#9650; 0 B</text>
<text x="776" y="174" font-size="10" fill="#606060">&#9660; 0 B</text>
<rect x="892" y="36" width="118" height="150" rx="3" fill="#fbfbfb" stroke="#d4d4d4"/>
<rect x="892" y="36" width="118" height="24" rx="3" fill="#eeeeee" stroke="#d4d4d4"/>
<rect x="892" y="48" width="118" height="12" fill="#eeeeee"/>
<text x="951.0" y="52" font-size="12" font-weight="bold" fill="#404040" text-anchor="middle">lan8</text>
<rect x="940.0" y="70" width="22" height="18" rx="2" fill="#f4f4f4" stroke="#9a9a9a" stroke-width="1.5"/>
<rect x="947.0" y="67" width="8" height="5" fill="#9a9a9a"/>
<text x="951.0" y="108" font-size="11" fill="#909090" text-anchor="middle">no link</text>
<rect x="920.0" y="126" width="62.0" height="16" rx="3" fill="#1a3a6a"/>
<text x="951.0" y="138" font-size="10" fill="#8abcff" text-anchor="middle">Label...</text>
<text x="902" y="160" font-size="10" fill="#606060">&#9650; 0 B</text>
<text x="902" y="174" font-size="10" fill="#606060">&#9660; 0 B</text>
<rect x="1018" y="36" width="118" height="150" rx="3" fill="#fbfbfb" stroke="#d4d4d4"/>
<rect x="1018" y="36" width="118" height="24" rx="3" fill="#eeeeee" stroke="#d4d4d4"/>
<rect x="1018" y="48" width="118" height="12" fill="#eeeeee"/>
<text x="1077.0" y="52" font-size="12" font-weight="bold" fill="#404040" text-anchor="middle">lan9</text>
<rect x="1066.0" y="70" width="22" height="18" rx="2" fill="#f4f4f4" stroke="#9a9a9a" stroke-width="1.5"/>
<rect x="1073.0" y="67" width="8" height="5" fill="#9a9a9a"/>
<text x="1077.0" y="108" font-size="11" fill="#909090" text-anchor="middle">no link</text>
<rect x="1046.0" y="126" width="62.0" height="16" rx="3" fill="#1a3a6a"/>
<text x="1077.0" y="138" font-size="10" fill="#8abcff" text-anchor="middle">Label...</text>
<text x="1028" y="160" font-size="10" fill="#606060">&#9650; 0 B</text>
<text x="1028" y="174" font-size="10" fill="#606060">&#9660; 0 B</text>
<rect x="1144" y="36" width="118" height="150" rx="3" fill="#fbfbfb" stroke="#d4d4d4"/>
<rect x="1144" y="36" width="118" height="24" rx="3" fill="#eeeeee" stroke="#d4d4d4"/>
<rect x="1144" y="48" width="118" height="12" fill="#eeeeee"/>
<text x="1203.0" y="52" font-size="12" font-weight="bold" fill="#404040" text-anchor="middle">lan10</text>
<rect x="1192.0" y="70" width="22" height="18" rx="2" fill="#f4f4f4" stroke="#9a9a9a" stroke-width="1.5"/>
<rect x="1199.0" y="67" width="8" height="5" fill="#9a9a9a"/>
<text x="1203.0" y="108" font-size="11" fill="#909090" text-anchor="middle">no link</text>
<rect x="1187.0" y="126" width="32.0" height="16" rx="3" fill="#1a3a6a"/>
<text x="1203.0" y="138" font-size="10" fill="#8abcff" text-anchor="middle">NAS</text>
<text x="1154" y="160" font-size="10" fill="#606060">&#9650; 0 B</text>
<text x="1154" y="174" font-size="10" fill="#606060">&#9660; 0 B</text>
</svg>