<svg xmlns="http://www.w3.org/2000/svg" width="634" height="312" viewBox="0 0 634 312" font-family="Helvetica,Arial,sans-serif">
<rect width="634" height="312" fill="#ffffff"/>
<rect x="16" y="46" width="190" height="240" rx="4" fill="#fbfbfb" stroke="#d4d4d4"/>
<rect x="16" y="46" width="190" height="34" rx="4" fill="#eeeeee" stroke="#d4d4d4"/>
<rect x="16" y="64" width="190" height="16" fill="#eeeeee"/>
<text x="111.0" y="69" font-size="17" font-weight="bold" fill="#404040" text-anchor="middle">lan1</text>
<rect x="93.0" y="98" width="36" height="30" rx="3" fill="#f4f4f4" stroke="#5a8f4f" stroke-width="2"/>
<rect x="105.0" y="93" width="12" height="7" fill="#5a8f4f"/>
<text x="111.0" y="156" font-size="16" fill="#2e7d32" text-anchor="middle">1 GbE</text>
<rect x="30" y="168" width="162" height="3" fill="#7cb342"/>
<rect x="71.0" y="184" width="80.0" height="24" rx="4" fill="#1a3a6a"/>
<text x="111.0" y="201" font-size="15" fill="#8abcff" text-anchor="middle">Router</text>
<text x="32" y="242" font-size="14" fill="#606060">&#9650; 17.1 MiB</text>
<text x="32" y="262" font-size="14" fill="#606060">&#9660; 4.1 MiB</text>
<rect x="222" y="46" width="190" height="240" rx="4" fill="#fbfbfb" stroke="#d4d4d4"/>
<rect x="222" y="46" width="190" height="34" rx="4" fill="#eeeeee" stroke="#d4d4d4"/>
<rect x="222" y="64" width="190" height="16" fill="#eeeeee"/>
<text x="317.0" y="69" font-size="17" font-weight="bold" fill="#404040" text-anchor="middle">lan2</text>
<rect x="299.0" y="98" width="36" height="30" rx="3" fill="#f4f4f4" stroke="#5a8f4f" stroke-width="2"/>
<rect x="311.0" y="93" width="12" height="7" fill="#5a8f4f"/>
<text x="317.0" y="156" font-size="16" fill="#2e7d32" text-anchor="middle">1 GbE</text>
<rect x="236" y="168" width="162" height="3" fill="#7cb342"/>
<rect x="254.5" y="184" width="125.0" height="24" rx="4" fill="#1a3a6a"/>
<text x="317.0" y="201" font-size="15" fill="#8abcff" text-anchor="middle">Camera Pool</text>
<text x="238" y="242" font-size="14" fill="#606060">&#9650; 17.1 MiB</text>
<text x="238" y="262" font-size="14" fill="#606060">&#9660; 4.1 MiB</text>
<rect x="428" y="46" width="190" height="240" rx="4" fill="#fbfbfb" stroke="#d4d4d4"/>
<rect x="428" y="46" width="190" height="34" rx="4" fill="#eeeeee" stroke="#d4d4d4"/>
<rect x="428" y="64" width="190" height="16" fill="#eeeeee"/>
<text x="523.0" y="69" font-size="17" font-weight="bold" fill="#404040" text-anchor="middle">lan3</text>
<rect x="505.0" y="98" width="36" height="30" rx="3" fill="#f4f4f4" stroke="#9a9a9a" stroke-width="2"/>
<rect x="517.0" y="93" width="12" height="7" fill="#9a9a9a"/>
<text x="523.0" y="156" font-size="16" fill="#909090" text-anchor="middle">no link</text>
<rect x="474.0" y="184" width="98.0" height="24" rx="4" fill="#1a3a6a"/>
<text x="523.0" y="201" font-size="15" fill="#8abcff" text-anchor="middle">Label...</text>
<text x="444" y="242" font-size="14" fill="#606060">&#9650; 0 B</text>
<text x="444" y="262" font-size="14" fill="#606060">&#9660; 0 B</text>
<text x="523.0" y="304" font-size="13" fill="#c0392b" text-anchor="middle" font-weight="bold">&#8593; click the blue badge to edit</text>
</svg>